<svg width="20" height="20" viewBox="0 0 20 20" fill="none" xmlns="http://www.w3.org/2000/svg">
<path fill-rule="evenodd" clip-rule="evenodd" d="M17.7196 1.91073C17.3942 1.5853 16.8665 1.5853 16.5411 1.91073L15.8141 2.6377C14.8848 2.19377 13.7381 2.35666 12.9684 3.12636L4.12958 11.9652L8.84359 16.6792L17.6824 7.84041C18.4522 7.07071 18.615 5.92399 18.1711 4.99471L18.8981 4.26776C19.2235 3.94232 19.2235 3.41468 18.8981 3.08925L17.7196 1.91073ZM14.1629 9.00291L8.84359 14.3222L6.4866 11.9652L11.8059 6.64591L14.1629 9.00291ZM15.6782 7.4877L16.5039 6.6619C16.8294 6.33646 16.8294 5.80882 16.5039 5.48338L15.3254 4.30487C15 3.97944 14.4723 3.97944 14.1469 4.30487L13.3211 5.13068L15.6782 7.4877Z" fill="black" fill-opacity="0.5"/>
<path d="M1.66666 19.1252L3.43475 12.6431L8.14846 17.3574L1.66666 19.1252Z" fill="black" fill-opacity="0.5"/>
</svg>
