<svg width="29" height="17" viewBox="0 0 29 17" fill="none" xmlns="http://www.w3.org/2000/svg">
<path d="M8.45833 12.1429C6.4563 12.1429 4.83333 10.5119 4.83333 8.5C4.83333 6.48811 6.4563 4.85714 8.45833 4.85714C10.4604 4.85714 12.0833 6.48811 12.0833 8.5C12.0833 10.5119 10.4604 12.1429 8.45833 12.1429Z" fill="black"/>
<path fill-rule="evenodd" clip-rule="evenodd" d="M29 8.5C29 3.80558 25.2131 0 20.5417 0H8.45833C3.78692 0 0 3.80558 0 8.5C0 13.1944 3.78692 17 8.45833 17H20.5417C25.2131 17 29 13.1944 29 8.5ZM20.5417 2.42857H8.45833C5.12161 2.42857 2.41667 5.14684 2.41667 8.5C2.41667 11.8532 5.12161 14.5714 8.45833 14.5714H20.5417C23.8784 14.5714 26.5833 11.8532 26.5833 8.5C26.5833 5.14684 23.8784 2.42857 20.5417 2.42857Z" fill="black"/>
</svg>
