<svg width="29" height="17" viewBox="0 0 29 17" fill="none" xmlns="http://www.w3.org/2000/svg">
<path d="M20.5417 11.9285C22.5437 11.9285 24.1667 10.3655 24.1667 8.43746C24.1667 6.50939 22.5437 4.94639 20.5417 4.94639C18.5396 4.94639 16.9167 6.50939 16.9167 8.43746C16.9167 10.3655 18.5396 11.9285 20.5417 11.9285Z" fill="#FDB100"/>
<path fill-rule="evenodd" clip-rule="evenodd" d="M0 8.43746C0 3.93864 3.78692 0.291626 8.45833 0.291626H20.5417C25.2131 0.291626 29 3.93864 29 8.43746C29 12.9363 25.2131 16.5833 20.5417 16.5833H8.45833C3.78693 16.5833 0 12.9363 0 8.43746ZM8.45833 2.61901H20.5417C23.8784 2.61901 26.5833 5.22402 26.5833 8.43746C26.5833 11.6509 23.8784 14.2559 20.5417 14.2559H8.45833C5.12161 14.2559 2.41667 11.6509 2.41667 8.43746C2.41667 5.22402 5.12161 2.61901 8.45833 2.61901Z" fill="#FDB100"/>
</svg>
