<svg width="37" height="37" viewBox="0 0 37 37" fill="none" xmlns="http://www.w3.org/2000/svg">
<rect width="37" height="37" fill="white"/>
<circle cx="18.3303" cy="18.3303" r="16.3303" fill="#FDB100" stroke="#FDB100" stroke-width="4"/>
<path d="M16.5957 16.6406H18.0996C18.8158 16.6406 19.3464 16.4616 19.6914 16.1035C20.0365 15.7454 20.209 15.2702 20.209 14.6777C20.209 14.1048 20.0365 13.6589 19.6914 13.3398C19.3529 13.0208 18.8841 12.8613 18.2852 12.8613C17.7448 12.8613 17.2923 13.0111 16.9277 13.3105C16.5632 13.6035 16.3809 13.9876 16.3809 14.4629H13.5586C13.5586 13.7207 13.7572 13.0566 14.1543 12.4707C14.5579 11.8783 15.1178 11.416 15.834 11.084C16.5566 10.752 17.3509 10.5859 18.2168 10.5859C19.7207 10.5859 20.8991 10.9473 21.752 11.6699C22.6048 12.3861 23.0312 13.3757 23.0312 14.6387C23.0312 15.2897 22.8327 15.8887 22.4355 16.4355C22.0384 16.9824 21.5176 17.4023 20.873 17.6953C21.6738 17.9818 22.2695 18.4115 22.6602 18.9844C23.0573 19.5573 23.2559 20.2344 23.2559 21.0156C23.2559 22.2786 22.7936 23.291 21.8691 24.0527C20.9512 24.8145 19.7337 25.1953 18.2168 25.1953C16.7975 25.1953 15.6354 24.821 14.7305 24.0723C13.832 23.3236 13.3828 22.334 13.3828 21.1035H16.2051C16.2051 21.6374 16.4036 22.0736 16.8008 22.4121C17.2044 22.7507 17.6992 22.9199 18.2852 22.9199C18.9557 22.9199 19.4798 22.7441 19.8574 22.3926C20.2415 22.0345 20.4336 21.5625 20.4336 20.9766C20.4336 19.5573 19.6523 18.8477 18.0898 18.8477H16.5957V16.6406Z" fill="white"/>
</svg>
