<svg width="10" height="16" viewBox="0 0 10 16" fill="none" xmlns="http://www.w3.org/2000/svg">
<path d="M3.9082 10.6348C3.9082 9.72331 4.01888 8.9974 4.24023 8.45703C4.46159 7.91667 4.86523 7.38607 5.45117 6.86523C6.04362 6.33789 6.4375 5.91146 6.63281 5.58594C6.82812 5.25391 6.92578 4.9056 6.92578 4.54102C6.92578 3.44076 6.41797 2.89062 5.40234 2.89062C4.92057 2.89062 4.5332 3.04036 4.24023 3.33984C3.95378 3.63281 3.80404 4.03971 3.79102 4.56055H0.958984C0.972005 3.31706 1.3724 2.34375 2.16016 1.64062C2.95443 0.9375 4.03516 0.585938 5.40234 0.585938C6.78255 0.585938 7.85352 0.921224 8.61523 1.5918C9.37695 2.25586 9.75781 3.19661 9.75781 4.41406C9.75781 4.96745 9.63411 5.49154 9.38672 5.98633C9.13932 6.47461 8.70638 7.01823 8.08789 7.61719L7.29688 8.36914C6.80208 8.8444 6.51888 9.40104 6.44727 10.0391L6.4082 10.6348H3.9082ZM3.625 13.6328C3.625 13.1966 3.77148 12.8385 4.06445 12.5586C4.36393 12.2721 4.74479 12.1289 5.20703 12.1289C5.66927 12.1289 6.04688 12.2721 6.33984 12.5586C6.63932 12.8385 6.78906 13.1966 6.78906 13.6328C6.78906 14.0625 6.64258 14.4173 6.34961 14.6973C6.06315 14.9772 5.68229 15.1172 5.20703 15.1172C4.73177 15.1172 4.34766 14.9772 4.05469 14.6973C3.76823 14.4173 3.625 14.0625 3.625 13.6328Z" fill="black" fill-opacity="0.5"/>
</svg>
