<svg width="38" height="38" viewBox="0 0 38 38" fill="none" xmlns="http://www.w3.org/2000/svg">
<path d="M32.3131 0L38 5.68694L35.1565 8.53041L29.4696 2.84347L32.3131 0Z" fill="#FDB100"/>
<path d="M20.6537 12.1649H16.6324V20.2074H20.6537V12.1649Z" fill="#FDB100"/>
<path fill-rule="evenodd" clip-rule="evenodd" d="M5.30011 32.6999C12.3669 39.7667 23.8245 39.7667 30.8913 32.6999C37.9581 25.6331 37.9581 14.1755 30.8913 7.10867C23.8245 0.041852 12.3669 0.041852 5.30011 7.10867C-1.7667 14.1755 -1.76671 25.6331 5.30011 32.6999ZM8.14358 29.8564C13.64 35.3528 22.5514 35.3528 28.0479 29.8564C33.5443 24.36 33.5443 15.4486 28.0479 9.95214C22.5514 4.45573 13.64 4.45572 8.14358 9.95214C2.64717 15.4486 2.64717 24.36 8.14358 29.8564Z" fill="#FDB100"/>
</svg>
