<svg width="54" height="31" viewBox="0 0 54 31" fill="none" xmlns="http://www.w3.org/2000/svg">
<path d="M34.8063 13.9343C33.9276 13.0695 32.503 13.0695 31.6243 13.9343C30.7456 14.799 30.7456 16.201 31.6243 17.0657C32.503 17.9305 33.9276 17.9305 34.8063 17.0657C35.685 16.201 35.685 14.799 34.8063 13.9343Z" fill="#FDB100"/>
<path d="M36.3973 9.23702C37.276 8.37228 38.7006 8.37228 39.5793 9.23702C40.458 10.1017 40.458 11.5038 39.5793 12.3685C38.7006 13.2332 37.276 13.2332 36.3973 12.3685C35.5186 11.5038 35.5186 10.1017 36.3973 9.23702Z" fill="#FDB100"/>
<path d="M44.3523 13.9343C43.4736 13.0695 42.049 13.0695 41.1703 13.9343C40.2917 14.799 40.2917 16.201 41.1703 17.0657C42.049 17.9305 43.4736 17.9305 44.3523 17.0657C45.231 16.201 45.231 14.799 44.3523 13.9343Z" fill="#FDB100"/>
<path d="M36.3973 18.6315C37.276 17.7668 38.7006 17.7668 39.5793 18.6315C40.458 19.4962 40.458 20.8983 39.5793 21.763C38.7006 22.6277 37.276 22.6277 36.3973 21.763C35.5186 20.8983 35.5186 19.4962 36.3973 18.6315Z" fill="#FDB100"/>
<path d="M13.5 17.7143H9V13.2857H13.5V8.85714H18V13.2857H22.5V17.7143H18V22.1429H13.5V17.7143Z" fill="#FDB100"/>
<path fill-rule="evenodd" clip-rule="evenodd" d="M15.75 0C7.05152 0 0 6.93959 0 15.5C0 24.0604 7.05152 31 15.75 31H38.25C46.9485 31 54 24.0604 54 15.5C54 6.93959 46.9485 0 38.25 0H15.75ZM38.25 4.42857H15.75C9.5368 4.42857 4.5 9.38542 4.5 15.5C4.5 21.6146 9.5368 26.5714 15.75 26.5714H38.25C44.4632 26.5714 49.5 21.6146 49.5 15.5C49.5 9.38542 44.4632 4.42857 38.25 4.42857Z" fill="#FDB100"/>
</svg>
