<svg width="37" height="37" viewBox="0 0 37 37" fill="none" xmlns="http://www.w3.org/2000/svg">
<rect width="37" height="37" fill="white"/>
<circle cx="18.3303" cy="18.3303" r="16.3303" fill="#FDB100" stroke="#FDB100" stroke-width="4"/>
<path d="M23.4707 25H13.7246V23.0664L18.3242 18.1641C18.9557 17.474 19.4212 16.8717 19.7207 16.3574C20.0267 15.8431 20.1797 15.3548 20.1797 14.8926C20.1797 14.2611 20.0202 13.7663 19.7012 13.4082C19.3822 13.0436 18.9264 12.8613 18.334 12.8613C17.696 12.8613 17.1914 13.0827 16.8203 13.5254C16.4557 13.9616 16.2734 14.5378 16.2734 15.2539H13.4414C13.4414 14.388 13.6465 13.597 14.0566 12.8809C14.4733 12.1647 15.0592 11.6048 15.8145 11.2012C16.5697 10.791 17.4258 10.5859 18.3828 10.5859C19.8477 10.5859 20.9837 10.9375 21.791 11.6406C22.6048 12.3438 23.0117 13.3366 23.0117 14.6191C23.0117 15.3223 22.8294 16.0384 22.4648 16.7676C22.1003 17.4967 21.4753 18.3464 20.5898 19.3164L17.3574 22.7246H23.4707V25Z" fill="white"/>
</svg>
